<svg id="Layer_2" data-name="Layer 2" xmlns="http://www.w3.org/2000/svg" xmlns:xlink="http://www.w3.org/1999/xlink" viewBox="0 0 1122.51 222.89"><defs><style>.cls-1{fill:#6a0cf8;}.cls-2{fill:url(#linear-gradient);}.cls-3{fill:#309;}.cls-4{font-size:108.9px;fill:#fff;font-family:SmoothCirculars, Smooth Circulars;letter-spacing:0.05em;}</style><linearGradient id="linear-gradient" x1="53.43" y1="38.85" x2="452.24" y2="38.85" gradientTransform="matrix(1, 0, 0, -1, 0, 249.87)" gradientUnits="userSpaceOnUse"><stop offset="0.13" stop-color="#6a0cf8"/><stop offset="0.56" stop-color="#fd16b8"/><stop offset="0.97" stop-color="#fdba7f"/></linearGradient></defs><g id="Layer_1-2" data-name="Layer 1-2"><path class="cls-1" d="M378.6,322.47c-27.82,0-54-11.6-73.67-32.66L268.1,250.4l-36.84,39.41c-19.69,21-45.84,32.66-73.66,32.66s-54-11.6-73.67-32.66c-40.66-43.45-40.66-114.18,0-157.63s106.73-43.47,147.36,0l36.84,39.41,36.83-39.41c40.64-43.45,106.72-43.47,147.36,0l-36.83,39.41c-20.32-21.74-53.38-21.74-73.67,0L305,211l36.83,39.41a49.71,49.71,0,0,0,73.67,0l36.83,39.41c-19.69,21-45.85,32.66-73.67,32.66Zm-221-167.19a50.24,50.24,0,0,0-36.83,16.31c-20.32,21.73-20.32,57.1,0,78.81s53.37,21.74,73.66,0L231.24,211l-36.84-39.4A50.24,50.24,0,0,0,157.57,155.28Z" transform="translate(-53.43 -99.57)"/><path class="cls-2" d="M83.9,132.18C63.58,153.89,53.43,182.46,53.43,211H105.5a57.59,57.59,0,0,1,15.24-39.4,49.74,49.74,0,0,1,73.66,0L231.24,211l36.83,39.41,36.83,39.41c19.7,21,45.85,32.66,73.67,32.66s54-11.6,73.67-32.66L415.4,250.4a49.7,49.7,0,0,1-73.66,0L304.9,211h0l-36.83-39.4-36.83-39.41c-40.64-43.45-106.73-43.47-147.36,0Z" transform="translate(-53.43 -99.57)"/><polygon class="cls-3" points="177.84 111.41 214.68 72 251.52 111.41 214.68 150.82 177.84 111.41"/><text class="cls-4" transform="translate(356.52 159.16) scale(0.93 1)">eventura</text></g></svg>